<svg width="21" height="19" viewBox="0 0 21 19" fill="none" xmlns="http://www.w3.org/2000/svg">
<path d="M18.8531 2.00295L18.8531 2.00296C19.8646 3.00617 20.3668 4.21869 20.3668 5.67092C20.3668 6.37468 20.2193 7.09381 19.9157 7.83141C19.5992 8.60042 19.2539 9.2763 18.8813 9.86153C18.5169 10.4337 17.8841 11.1973 16.9627 12.1592C16.0374 13.1253 15.2621 13.9021 14.6355 14.4918C14.007 15.0831 12.9946 15.9911 11.5943 17.2184L11.5943 17.2184L11.5903 17.222L10.4029 18.2856L9.22691 17.2697C7.86153 16.0122 6.85324 15.0848 6.20222 14.4875L5.8642 14.8559L6.20222 14.4875C5.5615 13.8996 4.7796 13.1244 3.85517 12.1592C2.93378 11.1973 2.301 10.4337 1.93668 9.86156L1.93667 9.86154C1.56574 9.27904 1.22953 8.606 0.929926 7.83963C0.640926 7.1004 0.5 6.37841 0.5 5.67092C0.5 4.21868 1.00217 3.00616 2.01362 2.00296C3.02525 0.99959 4.2497 0.5 5.71759 0.5C7.45884 0.5 8.88407 1.16138 10.0282 2.50525L10.4089 2.95242L10.7896 2.50525C11.9338 1.16138 13.359 0.5 15.1003 0.5C16.6039 0.5 17.8436 1.00167 18.8531 2.00295ZM14.3447 13.28L14.3447 13.28C15.0891 12.5746 15.9043 11.733 16.7901 10.7569L16.7901 10.7569C17.6849 9.77077 18.3325 8.88029 18.7047 8.08916C19.0756 7.301 19.2654 6.49353 19.2654 5.67092C19.2654 4.51066 18.8667 3.52184 18.0627 2.74293L18.0627 2.74291C17.2621 1.96735 16.2628 1.58418 15.1003 1.58418C14.2157 1.58418 13.3812 1.84177 12.6055 2.34275C11.9284 2.78008 11.4106 3.33534 11.0666 4.00765H9.76346C9.44337 3.33405 8.93654 2.77889 8.26124 2.34274C7.48198 1.83946 6.63069 1.58418 5.71759 1.58418C4.55508 1.58418 3.5614 1.96753 2.77547 2.74704L2.77547 2.74704C1.98927 3.52683 1.60134 4.51438 1.60134 5.67092C1.60134 6.48957 1.78123 7.29409 2.13374 8.08074C2.49151 8.87915 3.14349 9.77361 4.05538 10.7603C4.95666 11.7355 5.77902 12.5758 6.52206 13.28C7.25776 13.9773 8.40665 15.036 9.96672 16.4544L10.0566 16.5436L10.4087 16.8932L10.761 16.5438L10.8493 16.4563C12.4412 15.0385 13.6072 13.9789 14.3447 13.28Z" fill="#379683" stroke="#379683"/>
</svg>
