<svg width="203" height="80" viewBox="0 0 203 80" fill="none" xmlns="http://www.w3.org/2000/svg">
<circle cx="40" cy="40" r="40" fill="#05386B"/>
<path d="M18.5 52.5C24 61.5 33.8 74.8 29 56C24.2 37.2 42.3333 57.5 52 70" stroke="#5CDB95"/>
<path d="M157 22.135C162.5 31.135 172.3 44.435 167.5 25.635C162.7 6.83504 180.833 27.135 190.5 39.635" stroke="#5CDB95"/>
<path d="M37.88 45.92C37.2133 45.92 36.5333 45.7067 35.84 45.28C35.1733 44.88 34.4933 44.2267 33.8 43.32C32.9467 42.1467 32.2267 41.0267 31.64 39.96C31.0533 38.8933 30.5733 37.96 30.2 37.16C29.8533 36.36 29.5867 35.7867 29.4 35.44C29.4 35.44 29.4667 35.36 29.6 35.2C29.7333 35.0133 29.8933 34.84 30.08 34.68C30.2933 34.4933 30.4667 34.4 30.6 34.4C31.8533 34.4 32.9733 34.3867 33.96 34.36C34.9733 34.3067 35.8667 34.1467 36.64 33.88C37.44 33.5867 38.1467 33.0933 38.76 32.4C39.3733 31.7067 39.8933 30.72 40.32 29.44C40.4533 29.12 40.5333 28.8 40.56 28.48C40.6133 28.1333 40.64 27.8 40.64 27.48C40.64 26.5733 40.4133 25.7733 39.96 25.08C39.5067 24.3867 38.8533 23.9867 38 23.88C37.8933 23.8533 37.7733 23.84 37.64 23.84C37.5067 23.84 37.3733 23.84 37.24 23.84C36.7333 23.84 36.1733 23.9067 35.56 24.04C34.9733 24.1733 34.5333 24.4267 34.24 24.8C33.5733 25.68 32.9333 26.68 32.32 27.8C31.7067 28.8933 31.12 30.0133 30.56 31.16C30 32.28 29.4667 33.3333 28.96 34.32C28.8267 34.5867 28.5733 35.0667 28.2 35.76C27.8267 36.4267 27.4133 37.2 26.96 38.08C26.5067 38.9333 26.08 39.7867 25.68 40.64C25.28 41.4933 24.96 42.2533 24.72 42.92C24.5067 43.5867 24.4533 44.04 24.56 44.28C24.5867 44.3067 24.6 44.3467 24.6 44.4C24.6 44.48 24.56 44.52 24.48 44.52C24.2667 44.52 24.0533 44.4667 23.84 44.36C23.6267 44.2533 23.3733 44.2 23.08 44.2C22.8133 44.2 22.5467 44.2667 22.28 44.4C22.0133 44.5067 21.6667 44.7067 21.24 45C20.8133 45.2933 20.3333 45.5333 19.8 45.72C19.7467 45.7467 19.6667 45.76 19.56 45.76C19.3733 45.76 19.2267 45.7067 19.12 45.6C19.0133 45.52 19.0133 45.4533 19.12 45.4C19.7067 45.2933 20.2133 45.08 20.64 44.76C21.0667 44.4133 21.4133 43.9867 21.68 43.48C22.24 42.5467 22.7867 41.6133 23.32 40.68C23.88 39.72 24.4133 38.76 24.92 37.8C25.5333 36.6267 26.16 35.4533 26.8 34.28C27.44 33.08 28.08 31.8933 28.72 30.72C29.3333 29.6267 29.88 28.5733 30.36 27.56C30.84 26.5467 31.2 25.8133 31.44 25.36C31.6267 25.0133 31.9467 24.7067 32.4 24.44C32.88 24.1467 33.3467 23.92 33.8 23.76C33.64 23.76 33.48 23.76 33.32 23.76C33.16 23.7333 32.9867 23.72 32.8 23.72C31.9733 23.72 31.0667 23.7733 30.08 23.88C29.12 23.96 28.1733 24.0933 27.24 24.28C26.3333 24.4667 25.5333 24.72 24.84 25.04C24.1467 25.36 23.68 25.7467 23.44 26.2C23.3333 26.44 23.24 26.68 23.16 26.92C23.08 27.16 23.04 27.4 23.04 27.64C23.04 28.2533 23.2533 28.6933 23.68 28.96C23.7067 28.96 23.72 28.9867 23.72 29.04C23.72 29.0933 23.6667 29.1467 23.56 29.2C23.48 29.2533 23.4133 29.2667 23.36 29.24C23.0933 29.1067 22.7867 28.7867 22.44 28.28C22.12 27.7467 21.9067 27.3067 21.8 26.96C21.72 26.64 21.68 26.3467 21.68 26.08C21.68 25.3867 21.9067 24.8533 22.36 24.48C22.8133 24.08 23.3867 23.8 24.08 23.64C24.7733 23.4533 25.48 23.3467 26.2 23.32C26.9467 23.2667 27.6 23.24 28.16 23.24C29.0133 23.24 30.0267 23.24 31.2 23.24C32.3733 23.2133 33.4533 23.2 34.44 23.2C34.68 23.2 34.9467 23.2 35.24 23.2C35.5333 23.1733 35.84 23.16 36.16 23.16C36.88 23.16 37.6267 23.2 38.4 23.28C39.1733 23.36 39.88 23.5333 40.52 23.8C41.16 24.0667 41.6533 24.48 42 25.04C42.4533 25.7867 42.68 26.64 42.68 27.6C42.68 29.0667 42.2933 30.2933 41.52 31.28C41.2533 31.6267 40.96 31.96 40.64 32.28C40.32 32.6 39.9467 32.9067 39.52 33.2C38.8267 33.68 38 34.0933 37.04 34.44C36.08 34.76 35.08 35 34.04 35.16C33.0267 35.32 32.0933 35.4267 31.24 35.48C31.5867 36.2267 32.1067 37.2267 32.8 38.48C33.52 39.7333 34.3867 40.9867 35.4 42.24C35.9333 42.9067 36.48 43.3733 37.04 43.64C37.6 43.9067 38.1467 44.04 38.68 44.04C39.5333 44.04 40.3333 43.7867 41.08 43.28C41.8533 42.7733 42.5467 42.1867 43.16 41.52C43.8 40.8267 44.3067 40.2267 44.68 39.72C44.76 39.5867 44.8267 39.52 44.88 39.52C44.96 39.52 45 39.6 45 39.76C45 39.9733 44.92 40.1867 44.76 40.4C43.5333 42.08 42.36 43.4267 41.24 44.44C40.12 45.4267 39 45.92 37.88 45.92Z" fill="#5CDB95"/>
<path d="M58.88 56.92C58.2133 56.92 57.5333 56.7067 56.84 56.28C56.1733 55.88 55.4933 55.2267 54.8 54.32C53.9467 53.1467 53.2267 52.0267 52.64 50.96C52.0533 49.8933 51.5733 48.96 51.2 48.16C50.8533 47.36 50.5867 46.7867 50.4 46.44C50.4 46.44 50.4667 46.36 50.6 46.2C50.7333 46.0133 50.8933 45.84 51.08 45.68C51.2933 45.4933 51.4667 45.4 51.6 45.4C52.8533 45.4 53.9733 45.3867 54.96 45.36C55.9733 45.3067 56.8667 45.1467 57.64 44.88C58.44 44.5867 59.1467 44.0933 59.76 43.4C60.3733 42.7067 60.8933 41.72 61.32 40.44C61.4533 40.12 61.5333 39.8 61.56 39.48C61.6133 39.1333 61.64 38.8 61.64 38.48C61.64 37.5733 61.4133 36.7733 60.96 36.08C60.5067 35.3867 59.8533 34.9867 59 34.88C58.8933 34.8533 58.7733 34.84 58.64 34.84C58.5067 34.84 58.3733 34.84 58.24 34.84C57.7333 34.84 57.1733 34.9067 56.56 35.04C55.9733 35.1733 55.5333 35.4267 55.24 35.8C54.5733 36.68 53.9333 37.68 53.32 38.8C52.7067 39.8933 52.12 41.0133 51.56 42.16C51 43.28 50.4667 44.3333 49.96 45.32C49.8267 45.5867 49.5733 46.0667 49.2 46.76C48.8267 47.4267 48.4133 48.2 47.96 49.08C47.5067 49.9333 47.08 50.7867 46.68 51.64C46.28 52.4933 45.96 53.2533 45.72 53.92C45.5067 54.5867 45.4533 55.04 45.56 55.28C45.5867 55.3067 45.6 55.3467 45.6 55.4C45.6 55.48 45.56 55.52 45.48 55.52C45.2667 55.52 45.0533 55.4667 44.84 55.36C44.6267 55.2533 44.3733 55.2 44.08 55.2C43.8133 55.2 43.5467 55.2667 43.28 55.4C43.0133 55.5067 42.6667 55.7067 42.24 56C41.8133 56.2933 41.3333 56.5333 40.8 56.72C40.7467 56.7467 40.6667 56.76 40.56 56.76C40.3733 56.76 40.2267 56.7067 40.12 56.6C40.0133 56.52 40.0133 56.4533 40.12 56.4C40.7067 56.2933 41.2133 56.08 41.64 55.76C42.0667 55.4133 42.4133 54.9867 42.68 54.48C43.24 53.5467 43.7867 52.6133 44.32 51.68C44.88 50.72 45.4133 49.76 45.92 48.8C46.5333 47.6267 47.16 46.4533 47.8 45.28C48.44 44.08 49.08 42.8933 49.72 41.72C50.3333 40.6267 50.88 39.5733 51.36 38.56C51.84 37.5467 52.2 36.8133 52.44 36.36C52.6267 36.0133 52.9467 35.7067 53.4 35.44C53.88 35.1467 54.3467 34.92 54.8 34.76C54.64 34.76 54.48 34.76 54.32 34.76C54.16 34.7333 53.9867 34.72 53.8 34.72C52.9733 34.72 52.0667 34.7733 51.08 34.88C50.12 34.96 49.1733 35.0933 48.24 35.28C47.3333 35.4667 46.5333 35.72 45.84 36.04C45.1467 36.36 44.68 36.7467 44.44 37.2C44.3333 37.44 44.24 37.68 44.16 37.92C44.08 38.16 44.04 38.4 44.04 38.64C44.04 39.2533 44.2533 39.6933 44.68 39.96C44.7067 39.96 44.72 39.9867 44.72 40.04C44.72 40.0933 44.6667 40.1467 44.56 40.2C44.48 40.2533 44.4133 40.2667 44.36 40.24C44.0933 40.1067 43.7867 39.7867 43.44 39.28C43.12 38.7467 42.9067 38.3067 42.8 37.96C42.72 37.64 42.68 37.3467 42.68 37.08C42.68 36.3867 42.9067 35.8533 43.36 35.48C43.8133 35.08 44.3867 34.8 45.08 34.64C45.7733 34.4533 46.48 34.3467 47.2 34.32C47.9467 34.2667 48.6 34.24 49.16 34.24C50.0133 34.24 51.0267 34.24 52.2 34.24C53.3733 34.2133 54.4533 34.2 55.44 34.2C55.68 34.2 55.9467 34.2 56.24 34.2C56.5333 34.1733 56.84 34.16 57.16 34.16C57.88 34.16 58.6267 34.2 59.4 34.28C60.1733 34.36 60.88 34.5333 61.52 34.8C62.16 35.0667 62.6533 35.48 63 36.04C63.4533 36.7867 63.68 37.64 63.68 38.6C63.68 40.0667 63.2933 41.2933 62.52 42.28C62.2533 42.6267 61.96 42.96 61.64 43.28C61.32 43.6 60.9467 43.9067 60.52 44.2C59.8267 44.68 59 45.0933 58.04 45.44C57.08 45.76 56.08 46 55.04 46.16C54.0267 46.32 53.0933 46.4267 52.24 46.48C52.5867 47.2267 53.1067 48.2267 53.8 49.48C54.52 50.7333 55.3867 51.9867 56.4 53.24C56.9333 53.9067 57.48 54.3733 58.04 54.64C58.6 54.9067 59.1467 55.04 59.68 55.04C60.5333 55.04 61.3333 54.7867 62.08 54.28C62.8533 53.7733 63.5467 53.1867 64.16 52.52C64.8 51.8267 65.3067 51.2267 65.68 50.72C65.76 50.5867 65.8267 50.52 65.88 50.52C65.96 50.52 66 50.6 66 50.76C66 50.9733 65.92 51.1867 65.76 51.4C64.5333 53.08 63.36 54.4267 62.24 55.44C61.12 56.4267 60 56.92 58.88 56.92Z" fill="#5CDB95"/>
<path d="M91 41.135C96.5 50.135 106.3 63.435 101.5 44.635C96.7 25.835 114.833 46.135 124.5 58.635" stroke="#5CDB95"/>
<path d="M108 11.135C113.5 20.135 123.3 33.435 118.5 14.635C113.7 -4.16496 131.833 16.135 141.5 28.635" stroke="#5CDB95"/>
<path d="M92.5234 16.9375H98.8867C100.191 16.9375 101.312 17.1328 102.25 17.5234C103.195 17.9141 103.922 18.4922 104.43 19.2578C104.938 20.0234 105.191 20.9648 105.191 22.082C105.191 22.9961 105.035 23.7812 104.723 24.4375C104.418 25.0859 103.984 25.6289 103.422 26.0664C102.867 26.4961 102.215 26.8398 101.465 27.0977L100.352 27.6836H94.8203L94.7969 24.9414H98.9102C99.5273 24.9414 100.039 24.832 100.445 24.6133C100.852 24.3945 101.156 24.0898 101.359 23.6992C101.57 23.3086 101.676 22.8555 101.676 22.3398C101.676 21.793 101.574 21.3203 101.371 20.9219C101.168 20.5234 100.859 20.2188 100.445 20.0078C100.031 19.7969 99.5117 19.6914 98.8867 19.6914H96.0391V34H92.5234V16.9375ZM102.062 34L98.1719 26.3945L101.887 26.3711L105.824 33.8359V34H102.062ZM113.523 34.2344C112.539 34.2344 111.656 34.0781 110.875 33.7656C110.094 33.4453 109.43 33.0039 108.883 32.4414C108.344 31.8789 107.93 31.2266 107.641 30.4844C107.352 29.7344 107.207 28.9375 107.207 28.0938V27.625C107.207 26.6641 107.344 25.7852 107.617 24.9883C107.891 24.1914 108.281 23.5 108.789 22.9141C109.305 22.3281 109.93 21.8789 110.664 21.5664C111.398 21.2461 112.227 21.0859 113.148 21.0859C114.047 21.0859 114.844 21.2344 115.539 21.5312C116.234 21.8281 116.816 22.25 117.285 22.7969C117.762 23.3438 118.121 24 118.363 24.7656C118.605 25.5234 118.727 26.3672 118.727 27.2969V28.7031H108.648V26.4531H115.41V26.1953C115.41 25.7266 115.324 25.3086 115.152 24.9414C114.988 24.5664 114.738 24.2695 114.402 24.0508C114.066 23.832 113.637 23.7227 113.113 23.7227C112.668 23.7227 112.285 23.8203 111.965 24.0156C111.645 24.2109 111.383 24.4844 111.18 24.8359C110.984 25.1875 110.836 25.6016 110.734 26.0781C110.641 26.5469 110.594 27.0625 110.594 27.625V28.0938C110.594 28.6016 110.664 29.0703 110.805 29.5C110.953 29.9297 111.16 30.3008 111.426 30.6133C111.699 30.9258 112.027 31.168 112.41 31.3398C112.801 31.5117 113.242 31.5977 113.734 31.5977C114.344 31.5977 114.91 31.4805 115.434 31.2461C115.965 31.0039 116.422 30.6406 116.805 30.1562L118.445 31.9375C118.18 32.3203 117.816 32.6875 117.355 33.0391C116.902 33.3906 116.355 33.6797 115.715 33.9062C115.074 34.125 114.344 34.2344 113.523 34.2344ZM127.492 31.1406V25.4922C127.492 25.0859 127.426 24.7383 127.293 24.4492C127.16 24.1523 126.953 23.9219 126.672 23.7578C126.398 23.5938 126.043 23.5117 125.605 23.5117C125.23 23.5117 124.906 23.5781 124.633 23.7109C124.359 23.8359 124.148 24.0195 124 24.2617C123.852 24.4961 123.777 24.7734 123.777 25.0938H120.402C120.402 24.5547 120.527 24.043 120.777 23.5586C121.027 23.0742 121.391 22.6484 121.867 22.2812C122.344 21.9062 122.91 21.6133 123.566 21.4023C124.23 21.1914 124.973 21.0859 125.793 21.0859C126.777 21.0859 127.652 21.25 128.418 21.5781C129.184 21.9062 129.785 22.3984 130.223 23.0547C130.668 23.7109 130.891 24.5312 130.891 25.5156V30.9414C130.891 31.6367 130.934 32.207 131.02 32.6523C131.105 33.0898 131.23 33.4727 131.395 33.8008V34H127.984C127.82 33.6562 127.695 33.2266 127.609 32.7109C127.531 32.1875 127.492 31.6641 127.492 31.1406ZM127.938 26.2773L127.961 28.1875H126.074C125.629 28.1875 125.242 28.2383 124.914 28.3398C124.586 28.4414 124.316 28.5859 124.105 28.7734C123.895 28.9531 123.738 29.1641 123.637 29.4062C123.543 29.6484 123.496 29.9141 123.496 30.2031C123.496 30.4922 123.562 30.7539 123.695 30.9883C123.828 31.2148 124.02 31.3945 124.27 31.5273C124.52 31.6523 124.812 31.7148 125.148 31.7148C125.656 31.7148 126.098 31.6133 126.473 31.4102C126.848 31.207 127.137 30.957 127.34 30.6602C127.551 30.3633 127.66 30.082 127.668 29.8164L128.559 31.2461C128.434 31.5664 128.262 31.8984 128.043 32.2422C127.832 32.5859 127.562 32.9102 127.234 33.2148C126.906 33.5117 126.512 33.7578 126.051 33.9531C125.59 34.1406 125.043 34.2344 124.41 34.2344C123.605 34.2344 122.875 34.0742 122.219 33.7539C121.57 33.4258 121.055 32.9766 120.672 32.4062C120.297 31.8281 120.109 31.1719 120.109 30.4375C120.109 29.7734 120.234 29.1836 120.484 28.668C120.734 28.1523 121.102 27.7188 121.586 27.3672C122.078 27.0078 122.691 26.7383 123.426 26.5586C124.16 26.3711 125.012 26.2773 125.98 26.2773H127.938ZM138.73 31.5977C139.145 31.5977 139.512 31.5195 139.832 31.3633C140.152 31.1992 140.402 30.9727 140.582 30.6836C140.77 30.3867 140.867 30.0391 140.875 29.6406H144.051C144.043 30.5312 143.805 31.3242 143.336 32.0195C142.867 32.707 142.238 33.25 141.449 33.6484C140.66 34.0391 139.777 34.2344 138.801 34.2344C137.816 34.2344 136.957 34.0703 136.223 33.7422C135.496 33.4141 134.891 32.9609 134.406 32.3828C133.922 31.7969 133.559 31.1172 133.316 30.3438C133.074 29.5625 132.953 28.7266 132.953 27.8359V27.4961C132.953 26.5977 133.074 25.7617 133.316 24.9883C133.559 24.207 133.922 23.5273 134.406 22.9492C134.891 22.3633 135.496 21.9062 136.223 21.5781C136.949 21.25 137.801 21.0859 138.777 21.0859C139.816 21.0859 140.727 21.2852 141.508 21.6836C142.297 22.082 142.914 22.6523 143.359 23.3945C143.812 24.1289 144.043 25 144.051 26.0078H140.875C140.867 25.5859 140.777 25.2031 140.605 24.8594C140.441 24.5156 140.199 24.2422 139.879 24.0391C139.566 23.8281 139.18 23.7227 138.719 23.7227C138.227 23.7227 137.824 23.8281 137.512 24.0391C137.199 24.2422 136.957 24.5234 136.785 24.8828C136.613 25.2344 136.492 25.6367 136.422 26.0898C136.359 26.5352 136.328 27.0039 136.328 27.4961V27.8359C136.328 28.3281 136.359 28.8008 136.422 29.2539C136.484 29.707 136.602 30.1094 136.773 30.4609C136.953 30.8125 137.199 31.0898 137.512 31.293C137.824 31.4961 138.23 31.5977 138.73 31.5977ZM152.219 21.3203V23.7109H144.836V21.3203H152.219ZM146.664 18.1914H150.039V30.1797C150.039 30.5469 150.086 30.8281 150.18 31.0234C150.281 31.2188 150.43 31.3555 150.625 31.4336C150.82 31.5039 151.066 31.5391 151.363 31.5391C151.574 31.5391 151.762 31.5312 151.926 31.5156C152.098 31.4922 152.242 31.4688 152.359 31.4453L152.371 33.9297C152.082 34.0234 151.77 34.0977 151.434 34.1523C151.098 34.207 150.727 34.2344 150.32 34.2344C149.578 34.2344 148.93 34.1133 148.375 33.8711C147.828 33.6211 147.406 33.2227 147.109 32.6758C146.812 32.1289 146.664 31.4102 146.664 30.5195V18.1914ZM110.453 44.9375H116.816C118.121 44.9375 119.242 45.1328 120.18 45.5234C121.125 45.9141 121.852 46.4922 122.359 47.2578C122.867 48.0234 123.121 48.9648 123.121 50.082C123.121 50.9961 122.965 51.7812 122.652 52.4375C122.348 53.0859 121.914 53.6289 121.352 54.0664C120.797 54.4961 120.145 54.8398 119.395 55.0977L118.281 55.6836H112.75L112.727 52.9414H116.84C117.457 52.9414 117.969 52.832 118.375 52.6133C118.781 52.3945 119.086 52.0898 119.289 51.6992C119.5 51.3086 119.605 50.8555 119.605 50.3398C119.605 49.793 119.504 49.3203 119.301 48.9219C119.098 48.5234 118.789 48.2188 118.375 48.0078C117.961 47.7969 117.441 47.6914 116.816 47.6914H113.969V62H110.453V44.9375ZM119.992 62L116.102 54.3945L119.816 54.3711L123.754 61.8359V62H119.992ZM131.453 62.2344C130.469 62.2344 129.586 62.0781 128.805 61.7656C128.023 61.4453 127.359 61.0039 126.812 60.4414C126.273 59.8789 125.859 59.2266 125.57 58.4844C125.281 57.7344 125.137 56.9375 125.137 56.0938V55.625C125.137 54.6641 125.273 53.7852 125.547 52.9883C125.82 52.1914 126.211 51.5 126.719 50.9141C127.234 50.3281 127.859 49.8789 128.594 49.5664C129.328 49.2461 130.156 49.0859 131.078 49.0859C131.977 49.0859 132.773 49.2344 133.469 49.5312C134.164 49.8281 134.746 50.25 135.215 50.7969C135.691 51.3438 136.051 52 136.293 52.7656C136.535 53.5234 136.656 54.3672 136.656 55.2969V56.7031H126.578V54.4531H133.34V54.1953C133.34 53.7266 133.254 53.3086 133.082 52.9414C132.918 52.5664 132.668 52.2695 132.332 52.0508C131.996 51.832 131.566 51.7227 131.043 51.7227C130.598 51.7227 130.215 51.8203 129.895 52.0156C129.574 52.2109 129.312 52.4844 129.109 52.8359C128.914 53.1875 128.766 53.6016 128.664 54.0781C128.57 54.5469 128.523 55.0625 128.523 55.625V56.0938C128.523 56.6016 128.594 57.0703 128.734 57.5C128.883 57.9297 129.09 58.3008 129.355 58.6133C129.629 58.9258 129.957 59.168 130.34 59.3398C130.73 59.5117 131.172 59.5977 131.664 59.5977C132.273 59.5977 132.84 59.4805 133.363 59.2461C133.895 59.0039 134.352 58.6406 134.734 58.1562L136.375 59.9375C136.109 60.3203 135.746 60.6875 135.285 61.0391C134.832 61.3906 134.285 61.6797 133.645 61.9062C133.004 62.125 132.273 62.2344 131.453 62.2344ZM143.816 59.5977C144.23 59.5977 144.598 59.5195 144.918 59.3633C145.238 59.1992 145.488 58.9727 145.668 58.6836C145.855 58.3867 145.953 58.0391 145.961 57.6406H149.137C149.129 58.5312 148.891 59.3242 148.422 60.0195C147.953 60.707 147.324 61.25 146.535 61.6484C145.746 62.0391 144.863 62.2344 143.887 62.2344C142.902 62.2344 142.043 62.0703 141.309 61.7422C140.582 61.4141 139.977 60.9609 139.492 60.3828C139.008 59.7969 138.645 59.1172 138.402 58.3438C138.16 57.5625 138.039 56.7266 138.039 55.8359V55.4961C138.039 54.5977 138.16 53.7617 138.402 52.9883C138.645 52.207 139.008 51.5273 139.492 50.9492C139.977 50.3633 140.582 49.9062 141.309 49.5781C142.035 49.25 142.887 49.0859 143.863 49.0859C144.902 49.0859 145.812 49.2852 146.594 49.6836C147.383 50.082 148 50.6523 148.445 51.3945C148.898 52.1289 149.129 53 149.137 54.0078H145.961C145.953 53.5859 145.863 53.2031 145.691 52.8594C145.527 52.5156 145.285 52.2422 144.965 52.0391C144.652 51.8281 144.266 51.7227 143.805 51.7227C143.312 51.7227 142.91 51.8281 142.598 52.0391C142.285 52.2422 142.043 52.5234 141.871 52.8828C141.699 53.2344 141.578 53.6367 141.508 54.0898C141.445 54.5352 141.414 55.0039 141.414 55.4961V55.8359C141.414 56.3281 141.445 56.8008 141.508 57.2539C141.57 57.707 141.688 58.1094 141.859 58.4609C142.039 58.8125 142.285 59.0898 142.598 59.293C142.91 59.4961 143.316 59.5977 143.816 59.5977ZM154.656 49.3203V62H151.27V49.3203H154.656ZM151.059 46.0156C151.059 45.5234 151.23 45.1172 151.574 44.7969C151.918 44.4766 152.379 44.3164 152.957 44.3164C153.527 44.3164 153.984 44.4766 154.328 44.7969C154.68 45.1172 154.855 45.5234 154.855 46.0156C154.855 46.5078 154.68 46.9141 154.328 47.2344C153.984 47.5547 153.527 47.7148 152.957 47.7148C152.379 47.7148 151.918 47.5547 151.574 47.2344C151.23 46.9141 151.059 46.5078 151.059 46.0156ZM160.82 51.7578V66.875H157.445V49.3203H160.574L160.82 51.7578ZM168.848 55.5195V55.7656C168.848 56.6875 168.738 57.543 168.52 58.332C168.309 59.1211 167.996 59.8086 167.582 60.3945C167.168 60.9727 166.652 61.4258 166.035 61.7539C165.426 62.0742 164.723 62.2344 163.926 62.2344C163.152 62.2344 162.48 62.0781 161.91 61.7656C161.34 61.4531 160.859 61.0156 160.469 60.4531C160.086 59.8828 159.777 59.2227 159.543 58.4727C159.309 57.7227 159.129 56.918 159.004 56.0586V55.4141C159.129 54.4922 159.309 53.6484 159.543 52.8828C159.777 52.1094 160.086 51.4414 160.469 50.8789C160.859 50.3086 161.336 49.8672 161.898 49.5547C162.469 49.2422 163.137 49.0859 163.902 49.0859C164.707 49.0859 165.414 49.2383 166.023 49.543C166.641 49.8477 167.156 50.2852 167.57 50.8555C167.992 51.4258 168.309 52.1055 168.52 52.8945C168.738 53.6836 168.848 54.5586 168.848 55.5195ZM165.461 55.7656V55.5195C165.461 54.9805 165.414 54.4844 165.32 54.0312C165.234 53.5703 165.094 53.168 164.898 52.8242C164.711 52.4805 164.461 52.2148 164.148 52.0273C163.844 51.832 163.473 51.7344 163.035 51.7344C162.574 51.7344 162.18 51.8086 161.852 51.957C161.531 52.1055 161.27 52.3203 161.066 52.6016C160.863 52.8828 160.711 53.2188 160.609 53.6094C160.508 54 160.445 54.4414 160.422 54.9336V56.5625C160.461 57.1406 160.57 57.6602 160.75 58.1211C160.93 58.5742 161.207 58.9336 161.582 59.1992C161.957 59.4648 162.449 59.5977 163.059 59.5977C163.504 59.5977 163.879 59.5 164.184 59.3047C164.488 59.1016 164.734 58.8242 164.922 58.4727C165.117 58.1211 165.254 57.7148 165.332 57.2539C165.418 56.793 165.461 56.2969 165.461 55.7656ZM176.781 62.2344C175.797 62.2344 174.914 62.0781 174.133 61.7656C173.352 61.4453 172.688 61.0039 172.141 60.4414C171.602 59.8789 171.188 59.2266 170.898 58.4844C170.609 57.7344 170.465 56.9375 170.465 56.0938V55.625C170.465 54.6641 170.602 53.7852 170.875 52.9883C171.148 52.1914 171.539 51.5 172.047 50.9141C172.562 50.3281 173.188 49.8789 173.922 49.5664C174.656 49.2461 175.484 49.0859 176.406 49.0859C177.305 49.0859 178.102 49.2344 178.797 49.5312C179.492 49.8281 180.074 50.25 180.543 50.7969C181.02 51.3438 181.379 52 181.621 52.7656C181.863 53.5234 181.984 54.3672 181.984 55.2969V56.7031H171.906V54.4531H178.668V54.1953C178.668 53.7266 178.582 53.3086 178.41 52.9414C178.246 52.5664 177.996 52.2695 177.66 52.0508C177.324 51.832 176.895 51.7227 176.371 51.7227C175.926 51.7227 175.543 51.8203 175.223 52.0156C174.902 52.2109 174.641 52.4844 174.438 52.8359C174.242 53.1875 174.094 53.6016 173.992 54.0781C173.898 54.5469 173.852 55.0625 173.852 55.625V56.0938C173.852 56.6016 173.922 57.0703 174.062 57.5C174.211 57.9297 174.418 58.3008 174.684 58.6133C174.957 58.9258 175.285 59.168 175.668 59.3398C176.059 59.5117 176.5 59.5977 176.992 59.5977C177.602 59.5977 178.168 59.4805 178.691 59.2461C179.223 59.0039 179.68 58.6406 180.062 58.1562L181.703 59.9375C181.438 60.3203 181.074 60.6875 180.613 61.0391C180.16 61.3906 179.613 61.6797 178.973 61.9062C178.332 62.125 177.602 62.2344 176.781 62.2344ZM190.762 58.4961C190.762 58.2539 190.691 58.0352 190.551 57.8398C190.41 57.6445 190.148 57.4648 189.766 57.3008C189.391 57.1289 188.848 56.9727 188.137 56.832C187.496 56.6914 186.898 56.5156 186.344 56.3047C185.797 56.0859 185.32 55.8242 184.914 55.5195C184.516 55.2148 184.203 54.8555 183.977 54.4414C183.75 54.0195 183.637 53.5391 183.637 53C183.637 52.4688 183.75 51.9688 183.977 51.5C184.211 51.0312 184.543 50.6172 184.973 50.2578C185.41 49.8906 185.941 49.6055 186.566 49.4023C187.199 49.1914 187.91 49.0859 188.699 49.0859C189.801 49.0859 190.746 49.2617 191.535 49.6133C192.332 49.9648 192.941 50.4492 193.363 51.0664C193.793 51.6758 194.008 52.3711 194.008 53.1523H190.633C190.633 52.8242 190.562 52.5312 190.422 52.2734C190.289 52.0078 190.078 51.8008 189.789 51.6523C189.508 51.4961 189.141 51.418 188.688 51.418C188.312 51.418 187.988 51.4844 187.715 51.6172C187.441 51.7422 187.23 51.9141 187.082 52.1328C186.941 52.3438 186.871 52.5781 186.871 52.8359C186.871 53.0312 186.91 53.207 186.988 53.3633C187.074 53.5117 187.211 53.6484 187.398 53.7734C187.586 53.8984 187.828 54.0156 188.125 54.125C188.43 54.2266 188.805 54.3203 189.25 54.4062C190.164 54.5938 190.98 54.8398 191.699 55.1445C192.418 55.4414 192.988 55.8477 193.41 56.3633C193.832 56.8711 194.043 57.5391 194.043 58.3672C194.043 58.9297 193.918 59.4453 193.668 59.9141C193.418 60.3828 193.059 60.793 192.59 61.1445C192.121 61.4883 191.559 61.7578 190.902 61.9531C190.254 62.1406 189.523 62.2344 188.711 62.2344C187.531 62.2344 186.531 62.0234 185.711 61.6016C184.898 61.1797 184.281 60.6445 183.859 59.9961C183.445 59.3398 183.238 58.668 183.238 57.9805H186.438C186.453 58.4414 186.57 58.8125 186.789 59.0938C187.016 59.375 187.301 59.5781 187.645 59.7031C187.996 59.8281 188.375 59.8906 188.781 59.8906C189.219 59.8906 189.582 59.832 189.871 59.7148C190.16 59.5898 190.379 59.4258 190.527 59.2227C190.684 59.0117 190.762 58.7695 190.762 58.4961Z" fill="#379683"/>
</svg>
